<svg width="512" height="512" viewBox="0 0 512 512" fill="none" xmlns="http://www.w3.org/2000/svg">
<rect width="512" height="512" rx="256" fill="#DFEFFF"/>
<rect x="1" y="1" width="510" height="510" rx="255" stroke="#003971" stroke-opacity="0.5" stroke-width="2"/>
<g filter="url(#filter0_d_707_7018)">
<mask id="path-3-outside-1_707_7018" maskUnits="userSpaceOnUse" x="122" y="147" width="266" height="234" fill="black">
<rect fill="white" x="122" y="147" width="266" height="234"/>
<path fill-rule="evenodd" clip-rule="evenodd" d="M380.961 328.894L380.981 328.921C384.482 333.302 386.162 347.848 362.109 345.265C355.028 344.505 345.129 343.163 333.231 338.841C325.22 335.93 318.242 332.277 312.5 328.709C303.056 332.351 292.873 334.589 282.238 335.16C267.701 353.795 244.494 365.857 218.345 365.857C209.752 365.857 201.459 364.55 193.683 362.129C189.011 364.728 183.698 367.258 177.827 369.392C165.929 373.714 156.054 375.325 148.948 375.816C143.627 376.183 139.885 375.922 138.034 375.716C133.978 375.266 130.333 373.051 128.766 369.316C127.392 366.039 127.889 362.312 130.078 359.47C132.763 355.962 135.232 352.285 137.565 348.556C142.116 341.282 146.578 333.439 147.707 324.908C141.907 314.31 138.629 302.249 138.629 289.48C138.629 258.988 157.277 232.67 184.243 220.424C194.977 181.054 232.349 152 276.804 152C329.636 152 372.464 193.034 372.464 243.653C372.464 257.641 369.186 270.923 363.318 282.807C361.295 300.363 370.505 315.146 380.961 328.894ZM202.402 243.653C202.402 204.283 235.713 172.367 276.804 172.367C317.895 172.367 351.206 204.283 351.206 243.653C351.206 255.057 348.419 265.809 343.471 275.343C342.96 276.327 342.619 277.385 342.461 278.475C340.135 294.513 344.061 309.134 352.08 323.17C340.473 320.49 329.535 315.581 319.874 308.864C316.711 306.664 312.544 306.306 309.022 307.929C299.286 312.418 288.367 314.939 276.804 314.939C235.713 314.939 202.402 283.023 202.402 243.653ZM181.181 246.243C182.408 288.593 213.618 323.762 255.2 332.959C245.144 340.794 232.317 345.49 218.345 345.49C210.593 345.49 203.219 344.05 196.478 341.443C193.276 340.204 189.646 340.533 186.744 342.325C182.079 345.205 176.533 348.079 170.29 350.347C166.146 351.852 162.359 352.94 158.977 353.721C162.509 347.539 166.086 340.173 167.735 333.24C168.549 329.817 168.997 326.486 169.2 323.357C169.33 321.347 168.835 319.345 167.778 317.605C162.762 309.348 159.886 299.751 159.886 289.48C159.886 272.07 168.177 256.515 181.181 246.243Z"/>
</mask>
<path fill-rule="evenodd" clip-rule="evenodd" d="M380.961 328.894L380.981 328.921C384.482 333.302 386.162 347.848 362.109 345.265C355.028 344.505 345.129 343.163 333.231 338.841C325.22 335.93 318.242 332.277 312.5 328.709C303.056 332.351 292.873 334.589 282.238 335.16C267.701 353.795 244.494 365.857 218.345 365.857C209.752 365.857 201.459 364.55 193.683 362.129C189.011 364.728 183.698 367.258 177.827 369.392C165.929 373.714 156.054 375.325 148.948 375.816C143.627 376.183 139.885 375.922 138.034 375.716C133.978 375.266 130.333 373.051 128.766 369.316C127.392 366.039 127.889 362.312 130.078 359.47C132.763 355.962 135.232 352.285 137.565 348.556C142.116 341.282 146.578 333.439 147.707 324.908C141.907 314.31 138.629 302.249 138.629 289.48C138.629 258.988 157.277 232.67 184.243 220.424C194.977 181.054 232.349 152 276.804 152C329.636 152 372.464 193.034 372.464 243.653C372.464 257.641 369.186 270.923 363.318 282.807C361.295 300.363 370.505 315.146 380.961 328.894ZM202.402 243.653C202.402 204.283 235.713 172.367 276.804 172.367C317.895 172.367 351.206 204.283 351.206 243.653C351.206 255.057 348.419 265.809 343.471 275.343C342.96 276.327 342.619 277.385 342.461 278.475C340.135 294.513 344.061 309.134 352.08 323.17C340.473 320.49 329.535 315.581 319.874 308.864C316.711 306.664 312.544 306.306 309.022 307.929C299.286 312.418 288.367 314.939 276.804 314.939C235.713 314.939 202.402 283.023 202.402 243.653ZM181.181 246.243C182.408 288.593 213.618 323.762 255.2 332.959C245.144 340.794 232.317 345.49 218.345 345.49C210.593 345.49 203.219 344.05 196.478 341.443C193.276 340.204 189.646 340.533 186.744 342.325C182.079 345.205 176.533 348.079 170.29 350.347C166.146 351.852 162.359 352.94 158.977 353.721C162.509 347.539 166.086 340.173 167.735 333.24C168.549 329.817 168.997 326.486 169.2 323.357C169.33 321.347 168.835 319.345 167.778 317.605C162.762 309.348 159.886 299.751 159.886 289.48C159.886 272.07 168.177 256.515 181.181 246.243Z" fill="url(#paint0_radial_707_7018)" shape-rendering="crispEdges"/>
<path fill-rule="evenodd" clip-rule="evenodd" d="M380.961 328.894L380.981 328.921C384.482 333.302 386.162 347.848 362.109 345.265C355.028 344.505 345.129 343.163 333.231 338.841C325.22 335.93 318.242 332.277 312.5 328.709C303.056 332.351 292.873 334.589 282.238 335.16C267.701 353.795 244.494 365.857 218.345 365.857C209.752 365.857 201.459 364.55 193.683 362.129C189.011 364.728 183.698 367.258 177.827 369.392C165.929 373.714 156.054 375.325 148.948 375.816C143.627 376.183 139.885 375.922 138.034 375.716C133.978 375.266 130.333 373.051 128.766 369.316C127.392 366.039 127.889 362.312 130.078 359.47C132.763 355.962 135.232 352.285 137.565 348.556C142.116 341.282 146.578 333.439 147.707 324.908C141.907 314.31 138.629 302.249 138.629 289.48C138.629 258.988 157.277 232.67 184.243 220.424C194.977 181.054 232.349 152 276.804 152C329.636 152 372.464 193.034 372.464 243.653C372.464 257.641 369.186 270.923 363.318 282.807C361.295 300.363 370.505 315.146 380.961 328.894ZM202.402 243.653C202.402 204.283 235.713 172.367 276.804 172.367C317.895 172.367 351.206 204.283 351.206 243.653C351.206 255.057 348.419 265.809 343.471 275.343C342.96 276.327 342.619 277.385 342.461 278.475C340.135 294.513 344.061 309.134 352.08 323.17C340.473 320.49 329.535 315.581 319.874 308.864C316.711 306.664 312.544 306.306 309.022 307.929C299.286 312.418 288.367 314.939 276.804 314.939C235.713 314.939 202.402 283.023 202.402 243.653ZM181.181 246.243C182.408 288.593 213.618 323.762 255.2 332.959C245.144 340.794 232.317 345.49 218.345 345.49C210.593 345.49 203.219 344.05 196.478 341.443C193.276 340.204 189.646 340.533 186.744 342.325C182.079 345.205 176.533 348.079 170.29 350.347C166.146 351.852 162.359 352.94 158.977 353.721C162.509 347.539 166.086 340.173 167.735 333.24C168.549 329.817 168.997 326.486 169.2 323.357C169.33 321.347 168.835 319.345 167.778 317.605C162.762 309.348 159.886 299.751 159.886 289.48C159.886 272.07 168.177 256.515 181.181 246.243Z" stroke="black" stroke-width="10" stroke-linejoin="round" shape-rendering="crispEdges" mask="url(#path-3-outside-1_707_7018)"/>
</g>
<g clip-path="url(#clip0_707_7018)" filter="url(#filter1_d_707_7018)">
<g filter="url(#filter2_d_707_7018)">
<path d="M325.999 230.918C324.99 228.096 324.032 225.432 323.216 222.951C321.122 216.594 318.347 211.72 314.739 208.054C307.473 200.669 298.276 199.796 291.986 199.778L261.47 199.71C245.141 199.673 235.54 206.774 230.341 222.743C229.533 225.222 228.588 227.887 227.586 230.708C222.194 245.911 216.617 261.63 224.71 269.855C224.937 270.086 225.169 270.307 225.416 270.522C234.418 278.35 247.481 269.889 259.006 262.427C260.832 261.246 262.579 260.11 264.187 259.132C266.97 257.446 269.456 257.168 275.507 257.177L276.34 257.177L276.852 257.178L278.194 257.185C284.253 257.201 286.739 257.495 289.535 259.197C291.135 260.172 292.888 261.312 294.713 262.503C306.273 270.022 319.378 278.549 328.348 270.755C337.447 262.841 331.628 246.613 325.999 230.918ZM323.914 265.382C317.588 270.876 302.654 259.217 292.837 253.223C288.489 250.578 284.545 250.288 278.179 250.272C277.735 250.27 277.29 250.268 276.84 250.267C276.394 250.265 275.946 250.269 275.502 250.265C269.133 250.251 265.195 250.522 260.86 253.151C251.067 259.097 236.183 270.69 229.832 265.172C229.718 265.071 229.608 264.967 229.501 264.858C223.251 258.505 232.127 238.795 236.708 224.707C241.371 210.389 249.472 206.26 261.538 206.287C263.854 206.292 266.733 206.299 270.261 206.308C273.866 206.316 278.152 206.325 283.23 206.338C286.757 206.345 289.632 206.355 291.952 206.357C299.446 206.375 305.417 207.99 309.999 212.648C312.794 215.488 315.073 219.457 316.861 224.889C321.585 239.241 330.77 259.424 323.914 265.382ZM286.178 231.653L290.909 236.462L295.615 231.68L290.884 226.871L286.178 231.653ZM293.236 224.48L297.968 229.288L302.673 224.506L297.942 219.697L293.236 224.48ZM300.333 231.693L305.065 236.501L309.77 231.719L305.039 226.91L300.333 231.693ZM293.275 238.867L298.006 243.675L302.712 238.893L297.981 234.084L293.275 238.867ZM261.042 234.826L264.631 234.836C266.4 234.841 267.832 233.386 267.826 231.588C267.821 229.79 266.384 228.329 264.614 228.324L261.024 228.315L261.014 224.665C261.009 222.867 259.572 221.406 257.803 221.401C256.033 221.396 254.603 222.85 254.607 224.648L254.617 228.298L251.027 228.288C249.258 228.282 247.828 229.736 247.833 231.534C247.838 233.332 249.276 234.794 251.044 234.798L254.634 234.809L254.644 238.564C254.649 240.362 256.086 241.823 257.855 241.828C259.624 241.833 261.056 240.378 261.051 238.579L261.042 234.826Z" fill="#FF038B"/>
<path d="M325.999 230.918C324.99 228.096 324.032 225.432 323.216 222.951C321.122 216.594 318.347 211.72 314.739 208.054C307.473 200.669 298.276 199.796 291.986 199.778L261.47 199.71C245.141 199.673 235.54 206.774 230.341 222.743C229.533 225.222 228.588 227.887 227.586 230.708C222.194 245.911 216.617 261.63 224.71 269.855C224.937 270.086 225.169 270.307 225.416 270.522C234.418 278.35 247.481 269.889 259.006 262.427C260.832 261.246 262.579 260.11 264.187 259.132C266.97 257.446 269.456 257.168 275.507 257.177L276.34 257.177L276.852 257.178L278.194 257.185C284.253 257.201 286.739 257.495 289.535 259.197C291.135 260.172 292.888 261.312 294.713 262.503C306.273 270.022 319.378 278.549 328.348 270.755C337.447 262.841 331.628 246.613 325.999 230.918ZM323.914 265.382C317.588 270.876 302.654 259.217 292.837 253.223C288.489 250.578 284.545 250.288 278.179 250.272C277.735 250.27 277.29 250.268 276.84 250.267C276.394 250.265 275.946 250.269 275.502 250.265C269.133 250.251 265.195 250.522 260.86 253.151C251.067 259.097 236.183 270.69 229.832 265.172C229.718 265.071 229.608 264.967 229.501 264.858C223.251 258.505 232.127 238.795 236.708 224.707C241.371 210.389 249.472 206.26 261.538 206.287C263.854 206.292 266.733 206.299 270.261 206.308C273.866 206.316 278.152 206.325 283.23 206.338C286.757 206.345 289.632 206.355 291.952 206.357C299.446 206.375 305.417 207.99 309.999 212.648C312.794 215.488 315.073 219.457 316.861 224.889C321.585 239.241 330.77 259.424 323.914 265.382ZM286.178 231.653L290.909 236.462L295.615 231.68L290.884 226.871L286.178 231.653ZM293.236 224.48L297.968 229.288L302.673 224.506L297.942 219.697L293.236 224.48ZM300.333 231.693L305.065 236.501L309.77 231.719L305.039 226.91L300.333 231.693ZM293.275 238.867L298.006 243.675L302.712 238.893L297.981 234.084L293.275 238.867ZM261.042 234.826L264.631 234.836C266.4 234.841 267.832 233.386 267.826 231.588C267.821 229.79 266.384 228.329 264.614 228.324L261.024 228.315L261.014 224.665C261.009 222.867 259.572 221.406 257.803 221.401C256.033 221.396 254.603 222.85 254.607 224.648L254.617 228.298L251.027 228.288C249.258 228.282 247.828 229.736 247.833 231.534C247.838 233.332 249.276 234.794 251.044 234.798L254.634 234.809L254.644 238.564C254.649 240.362 256.086 241.823 257.855 241.828C259.624 241.833 261.056 240.378 261.051 238.579L261.042 234.826Z" stroke="black"/>
</g>
</g>
<g filter="url(#filter3_d_707_7018)">
<path d="M192.5 286.5C187.5 289.251 174 296.5 174 296.5V289.251L185 283C181.5 275.5 177.601 259.197 176.5 248.5L166 246.5L168.5 239.78L176.5 241C176.5 241 178 212.5 189.857 194.843C183.488 170.373 201.382 139 201.382 139C201.382 139 222.572 144.201 235 156.5C247.66 152.318 261.348 147.5 276.5 147.5C291.574 147.5 309.45 150.304 320 156.5C332.402 144.116 353.618 139 353.618 139C353.618 139 370.362 171.03 364 195.5C372 209 377.5 225 377.5 244L387 242L390 248.5L377 250C376 260.5 375.5 266.5 370 280L385.5 288.218V296C385.5 296 365.5 287.5 363.5 287.5" stroke="url(#paint1_angular_707_7018)" stroke-width="10" shape-rendering="crispEdges"/>
</g>
<defs>
<filter id="filter0_d_707_7018" x="119" y="147" width="273" height="242" filterUnits="userSpaceOnUse" color-interpolation-filters="sRGB">
<feFlood flood-opacity="0" result="BackgroundImageFix"/>
<feColorMatrix in="SourceAlpha" type="matrix" values="0 0 0 0 0 0 0 0 0 0 0 0 0 0 0 0 0 0 127 0" result="hardAlpha"/>
<feOffset dy="4"/>
<feGaussianBlur stdDeviation="2"/>
<feComposite in2="hardAlpha" operator="out"/>
<feColorMatrix type="matrix" values="0 0 0 0 0 0 0 0 0 0 0 0 0 0 0 0 0 0 0.25 0"/>
<feBlend mode="normal" in2="BackgroundImageFix" result="effect1_dropShadow_707_7018"/>
<feBlend mode="normal" in="SourceGraphic" in2="effect1_dropShadow_707_7018" result="shape"/>
</filter>
<filter id="filter1_d_707_7018" x="167.995" y="136.616" width="216.125" height="219.53" filterUnits="userSpaceOnUse" color-interpolation-filters="sRGB">
<feFlood flood-opacity="0" result="BackgroundImageFix"/>
<feColorMatrix in="SourceAlpha" type="matrix" values="0 0 0 0 0 0 0 0 0 0 0 0 0 0 0 0 0 0 127 0" result="hardAlpha"/>
<feOffset dy="4"/>
<feGaussianBlur stdDeviation="2"/>
<feComposite in2="hardAlpha" operator="out"/>
<feColorMatrix type="matrix" values="0 0 0 0 0 0 0 0 0 0 0 0 0 0 0 0 0 0 0.25 0"/>
<feBlend mode="normal" in2="BackgroundImageFix" result="effect1_dropShadow_707_7018"/>
<feBlend mode="normal" in="SourceGraphic" in2="effect1_dropShadow_707_7018" result="shape"/>
</filter>
<filter id="filter2_d_707_7018" x="216.638" y="199.71" width="120.45" height="82.1335" filterUnits="userSpaceOnUse" color-interpolation-filters="sRGB">
<feFlood flood-opacity="0" result="BackgroundImageFix"/>
<feColorMatrix in="SourceAlpha" type="matrix" values="0 0 0 0 0 0 0 0 0 0 0 0 0 0 0 0 0 0 127 0" result="hardAlpha"/>
<feOffset dy="4"/>
<feGaussianBlur stdDeviation="2"/>
<feComposite in2="hardAlpha" operator="out"/>
<feColorMatrix type="matrix" values="0 0 0 0 0 0 0 0 0 0 0 0 0 0 0 0 0 0 0.25 0"/>
<feBlend mode="normal" in2="BackgroundImageFix" result="effect1_dropShadow_707_7018"/>
<feBlend mode="normal" in="SourceGraphic" in2="effect1_dropShadow_707_7018" result="shape"/>
</filter>
<filter id="filter3_d_707_7018" x="155.25" y="133.224" width="246.184" height="179.636" filterUnits="userSpaceOnUse" color-interpolation-filters="sRGB">
<feFlood flood-opacity="0" result="BackgroundImageFix"/>
<feColorMatrix in="SourceAlpha" type="matrix" values="0 0 0 0 0 0 0 0 0 0 0 0 0 0 0 0 0 0 127 0" result="hardAlpha"/>
<feOffset dy="4"/>
<feGaussianBlur stdDeviation="2"/>
<feComposite in2="hardAlpha" operator="out"/>
<feColorMatrix type="matrix" values="0 0 0 0 0 0 0 0 0 0 0 0 0 0 0 0 0 0 0.25 0"/>
<feBlend mode="normal" in2="BackgroundImageFix" result="effect1_dropShadow_707_7018"/>
<feBlend mode="normal" in="SourceGraphic" in2="effect1_dropShadow_707_7018" result="shape"/>
</filter>
<radialGradient id="paint0_radial_707_7018" cx="0" cy="0" r="1" gradientUnits="userSpaceOnUse" gradientTransform="translate(141.5 131.5) rotate(46.5482) scale(366.415 417.124)">
<stop offset="0.174649" stop-color="#07ADA3"/>
<stop offset="0.761" stop-color="#93FFF9" stop-opacity="0.7"/>
</radialGradient>
<radialGradient id="paint1_angular_707_7018" cx="0" cy="0" r="1" gradientUnits="userSpaceOnUse" gradientTransform="translate(277.5 217.5) rotate(90) scale(78.5 105.5)">
<stop offset="0.211" stop-color="#FE3844" stop-opacity="0.94"/>
<stop offset="0.366" stop-color="#FF4D6D"/>
<stop offset="0.741" stop-color="#BD18D8"/>
<stop offset="0.9994" stop-color="#45094E" stop-opacity="0.458624"/>
<stop offset="0.9995" stop-color="#300437" stop-opacity="0"/>
<stop offset="0.9996" stop-opacity="0"/>
<stop offset="0.9997" stop-color="#710D81"/>
<stop offset="0.9998" stop-color="#E387F2"/>
<stop offset="0.9999" stop-color="#C604E6"/>
</radialGradient>
<clipPath id="clip0_707_7018">
<rect width="148.375" height="148.375" fill="white" transform="matrix(0.701348 0.712819 -0.701348 0.712819 276.058 136.616)"/>
</clipPath>
</defs>
</svg>
